<?xml version="1.0" encoding="UTF-8"?>
<svg width="24px" height="24px" viewBox="0 0 24 24" version="1.1" xmlns="http://www.w3.org/2000/svg" xmlns:xlink="http://www.w3.org/1999/xlink">
    <title>矩形</title>
    <defs>
        <linearGradient x1="50%" y1="9.29515775%" x2="50%" y2="100%" id="linearGradient-1">
            <stop stop-color="#3BD6FF" offset="0%"></stop>
            <stop stop-color="#3575E6" offset="100%"></stop>
        </linearGradient>
    </defs>
    <g id="Page-1" stroke="none" stroke-width="1" fill="none" fill-rule="evenodd">
        <g id="0901映射管理" transform="translate(-18.000000, -192.000000)">
            <g id="分组-7" transform="translate(0.000000, 43.000000)">
                <g id="假设" transform="translate(16.000000, 149.000000)">
                    <g id="假设未选择" transform="translate(1.999994, 0.000000)">
                        <rect id="矩形" x="6.43995008e-06" y="0" width="24" height="24"></rect>
                        <path d="M13.1125892,0.0134041561 L19.8675561,6.76837748 L19.8675561,22.6624172 C19.8647154,22.9771903 19.7359203,23.2777124 19.5099402,23.4968543 C19.2930658,23.726107 18.9910823,23.8555285 18.6755031,23.8544766 L18.6755031,23.8544766 L1.19205942,23.8544766 C0.877286342,23.8516295 0.576764254,23.7228343 0.357622334,23.4968543 C0.128369647,23.2799799 -0.00105187107,22.9779963 0,22.6624172 L0,22.6624172 L0,1.20546358 C0.0119137547,0.892662867 0.139323417,0.595373655 0.357622334,0.37102649 C0.574496749,0.141773803 0.876480291,0.012352285 1.19205942,0.0134041561 L1.19205942,0.0134041561 L13.1125892,0.0134041561 Z M4,12.0134042 L2,12.0134042 L2,20.0134042 L4,20.0134042 L4,12.0134042 Z M7.8458187,9.0143253 L7.67418995,9.02684036 C7.2195602,9.07953641 6.79237529,9.28562677 6.46630472,9.61664106 C6.05871651,10.0304089 5.84841031,10.5994839 5.88888889,11.1790909 L5.88888889,11.1790909 L5.88888889,12.3754041 L5,12.3754041 L5,13.5717174 L5.88888889,13.5717174 L5.88888889,20.0134042 L7.45210728,20.0134042 L7.45210728,13.5717174 L9,13.5717174 L9,12.3754041 L7.45210728,12.3754041 L7.45210728,11.2557776 L7.44310913,11.1352449 C7.44351715,10.934977 7.52008957,10.7405522 7.65992302,10.5931154 C7.82772316,10.4161912 8.06779219,10.3267806 8.31034483,10.350874 L8.31034483,10.350874 L9,10.350874 L9,9.0165246 L8.01915709,9.0165246 L7.8458187,9.0143253 Z M13.7242215,12.0134042 L12.3146556,12.0134042 C11.6024539,12.5701493 11.0683026,13.1525905 10.6825266,13.7692928 C10.222563,14.4887789 10,15.2339609 10,16.0219695 C10,16.7928474 10.222563,17.5465947 10.6825266,18.2660808 C11.0683026,18.8656526 11.6024539,19.4480937 12.3146556,20.0134042 L12.3146556,20.0134042 L13.7242215,20.0134042 C13.101045,19.4138324 12.6262438,18.822826 12.2998181,18.2403849 C11.854692,17.4952029 11.6469665,16.7500209 11.6469665,16.0134042 C11.6469665,15.2682221 11.854692,14.5230401 12.2998181,13.7864234 C12.6262438,13.195417 13.101045,12.6044106 13.7242215,12.0134042 L13.7242215,12.0134042 Z M15.6853444,12.0134042 L14.2757785,12.0134042 C14.8841175,12.6044106 15.3589186,13.195417 15.7001819,13.7864234 C16.1304705,14.5230401 16.3530335,15.2682221 16.3530335,16.0134042 C16.3530335,16.7500209 16.1304705,17.4952029 15.7001819,18.2403849 C15.3589186,18.822826 14.8841175,19.4138324 14.2757785,20.0134042 L14.2757785,20.0134042 L15.6853444,20.0134042 C16.3827086,19.4480937 16.9316974,18.8656526 17.3174734,18.2660808 C17.7625994,17.5465947 18,16.7928474 18,16.0219695 C18,15.2339609 17.7625994,14.4887789 17.3174734,13.7692928 C16.9316974,13.1525905 16.3827086,12.5701493 15.6853444,12.0134042 L15.6853444,12.0134042 Z M4,9.01340416 L2,9.01340416 L2,11.0134042 L4,11.0134042 L4,9.01340416 Z" id="合并形状" fill="#AAB5CB"></path>
                        <path d="M19.8675561,6.89056291 L14.2053045,6.89056291 C13.5409557,6.87483833 13.0061284,6.34001103 12.9904038,5.67566225 L12.9904038,0.013410596 L19.8675561,6.89056291 Z" id="路径" fill-opacity="0.5" fill="#FFFEFE"></path>
                    </g>
                    <g id="假设未选择" transform="translate(1.999987, 0.000000)">
                        <rect id="矩形" x="1.28020656e-05" y="0" width="24" height="24"></rect>
                        <path d="M1.19206578,0.0134041561 C0.876486654,0.012352285 0.574503111,0.141773803 0.357628696,0.37102649 C0.139329779,0.595373655 0.0119201168,0.892662867 6.36211553e-06,1.20546358 L6.36211553e-06,22.6624172 C-0.00104550895,22.9779963 0.128376009,23.2799799 0.357628696,23.4968543 C0.576770616,23.7228343 0.877292704,23.8516295 1.19206578,23.8544766 L18.6755095,23.8544766 C18.9910886,23.8555285 19.2930722,23.726107 19.5099466,23.4968543 C19.7359266,23.2777124 19.8647218,22.9771903 19.8675625,22.6624172 L19.8675625,6.76837748 L13.1125956,0.0134041561 L1.19206578,0.0134041561 Z" id="合并形状" fill="url(#linearGradient-1)" fill-rule="nonzero"></path>
                        <path d="M4.00000636,11.0134042 L4.00000636,9.01340416 L2.00000636,9.01340416 L2.00000636,11.0134042 L4.00000636,11.0134042 Z M4.00000636,20.0134042 L4.00000636,12.0134042 L2.00000636,12.0134042 L2.00000636,20.0134042 L4.00000636,20.0134042 Z M7.84582506,9.0143253 L8.01916345,9.0165246 L9.00000636,9.0165246 L9.00000636,10.350874 L8.31035119,10.350874 C8.06779856,10.3267806 7.82772952,10.4161912 7.65992938,10.5931154 C7.49212924,10.7700396 7.41542498,11.0146265 7.45211364,11.2557776 L7.45211364,11.2557776 L7.45211364,12.3754041 L9.00000636,12.3754041 L9.00000636,13.5717174 L7.45211364,13.5717174 L7.45211364,20.0134042 L5.88889525,20.0134042 L5.88889525,13.5717174 L5.00000636,13.5717174 L5.00000636,12.3754041 L5.88889525,12.3754041 L5.88889525,11.1790909 C5.84841667,10.5994839 6.05872287,10.0304089 6.46631108,9.61664106 C6.8738993,9.2028732 7.43947866,8.98429898 8.01916345,9.0165246 Z M13.7242279,12.0134042 C13.1010514,12.6044106 12.6262502,13.195417 12.2998244,13.7864234 C11.8546983,14.5230401 11.6469728,15.2682221 11.6469728,16.0134042 C11.6469728,16.7500209 11.8546983,17.4952029 12.2998244,18.2403849 C12.6262502,18.822826 13.1010514,19.4138324 13.7242279,20.0134042 L12.314662,20.0134042 C11.6024602,19.4480937 11.0683089,18.8656526 10.682533,18.2660808 C10.2225694,17.5465947 10.0000064,16.7928474 10.0000064,16.0219695 C10.0000064,15.2339609 10.2225694,14.4887789 10.682533,13.7692928 C11.0683089,13.1525905 11.6024602,12.5701493 12.314662,12.0134042 L13.7242279,12.0134042 Z M15.6853508,12.0134042 C16.382715,12.5701493 16.9317038,13.1525905 17.3174797,13.7692928 C17.7626058,14.4887789 18.0000064,15.2339609 18.0000064,16.0219695 C18.0000064,16.7928474 17.7626058,17.5465947 17.3174797,18.2660808 C16.9317038,18.8656526 16.382715,19.4480937 15.6853508,20.0134042 L14.2757849,20.0134042 C14.8841238,19.4138324 15.358925,18.822826 15.7001883,18.2403849 C16.1304768,17.4952029 16.3530399,16.7500209 16.3530399,16.0134042 C16.3530399,15.2682221 16.1304768,14.5230401 15.7001883,13.7864234 C15.358925,13.195417 14.8841238,12.6044106 14.2757849,12.0134042 L15.6853508,12.0134042 Z" id="形状" fill="#FFFFFF" fill-rule="nonzero"></path>
                        <path d="M19.8675625,6.89056291 L14.2053108,6.89056291 C13.540962,6.87483833 13.0061347,6.34001103 12.9904102,5.67566225 L12.9904102,0.013410596 L19.8675625,6.89056291 Z" id="路径" fill-opacity="0.5" fill="#FFFEFE"></path>
                    </g>
                </g>
            </g>
        </g>
    </g>
</svg>