<?xml version="1.0" encoding="UTF-8"?>
<svg width="24px" height="24px" viewBox="0 0 24 24" version="1.1" xmlns="http://www.w3.org/2000/svg" xmlns:xlink="http://www.w3.org/1999/xlink">
    <title>模型icon</title>
    <g id="模型icon" stroke="none" stroke-width="1" fill="none" fill-rule="evenodd">
        <g id="模版未选择" transform="translate(0.000000, 0.000000)">
            <rect id="矩形" fill-opacity="0" fill="#FFFFFF" x="0" y="0" width="24" height="24"></rect>
            <path d="M14.5662658,0 L20,4.8611809 L20,22.7884892 C20,23.1098014 19.8645015,23.4179535 19.6233127,23.6451556 C19.3821239,23.8723576 19.0550016,24 18.7139091,24 L3.15220886,24 C1.41356894,24.0016724 0.00248438614,22.675672 0,21.0378583 L0,1.21150926 C0,0.542411171 0.575802521,0 1.28609093,0 L14.5662658,0 Z M10.4314983,9 L9.50393212,9 L9.50393212,11.500207 L7,11.500207 L7,12.4265315 L9.50393212,12.4265315 L9.50393212,15 L10.4314983,15 L10.4314983,12.4265315 L13,12.4265315 L13,11.500207 L10.4314983,11.500207 L10.4314983,9 Z" id="合并形状" fill="#AAB5CB"></path>
        </g>
    </g>
</svg>