<?xml version="1.0" encoding="UTF-8"?>
<svg width="24px" height="24px" viewBox="0 0 24 24" version="1.1" xmlns="http://www.w3.org/2000/svg" xmlns:xlink="http://www.w3.org/1999/xlink">
    <title>矩形</title>
    <defs>
        <linearGradient x1="50%" y1="9.29515775%" x2="50%" y2="100%" id="linearGradient-1">
            <stop stop-color="#3BD6FF" offset="0%"></stop>
            <stop stop-color="#3575E6" offset="100%"></stop>
        </linearGradient>
    </defs>
    <g id="Page-1" stroke="none" stroke-width="1" fill="none" fill-rule="evenodd">
        <g id="0901映射管理" transform="translate(-18.000000, -116.000000)">
            <g id="分组-7" transform="translate(0.000000, 43.000000)">
                <g id="数据-" transform="translate(16.000000, 69.000000)">
                    <g id="数据未选择状态" transform="translate(2.000000, 4.000000)">
                        <path d="M22.0108125,0 L1.98460714,0 C0.887008929,0 0,0.887008929 0,1.98460714 L0,13.8394554 C0,14.9370536 0.887008929,15.8240357 1.98460714,15.8240357 L22.0032857,15.8240357 C23.1008304,15.8240357 23.9878875,14.9370268 23.9878875,13.8394554 L23.9878875,1.99213393 C23.9954196,0.894508929 23.1084107,0 22.0108125,0 Z M17.1019018,19.8308304 L6.89346429,19.8308304 C6.3748125,19.8308304 5.95379464,19.4098125 5.95379464,18.8911607 C5.95379464,18.3724554 6.3748125,17.9514375 6.89346429,17.9514375 L17.1019286,17.9514375 C17.6206339,17.9514375 18.0416518,18.3724554 18.0416518,18.8911607 C18.0416518,19.4098125 17.6206071,19.8308304 17.1019018,19.8308304 Z" id="运行未选择" fill="url(#linearGradient-1)" fill-rule="nonzero"></path>
                        <path d="M12.9028983,8.75449208 L18.4031342,8.75485374 C18.6792766,8.75485374 18.9031342,8.97871137 18.9031342,9.25485374 C18.9031342,9.53099612 18.6792766,9.75485374 18.4031342,9.75485374 L12.4031342,9.75485374 C12.1269919,9.75485374 11.9031342,9.53099612 11.9031342,9.25485374 L11.9028983,6.94849208 L6.20560111,6.52403679 C6.03265815,6.51115771 5.90290075,6.36051918 5.91577983,6.18757622 C5.91928683,6.14048352 5.93337027,6.09478826 5.95698182,6.05389185 L6.05247333,5.88849571 C6.14716634,5.7244826 6.32639787,5.62804687 6.51544366,5.63939398 L12.4330919,5.99458954 C12.6971242,6.01043758 12.9031342,6.22918373 12.9031342,6.49369127 L12.9028983,8.75449208 Z" id="形状结合" fill="#FFFFFF" transform="translate(12.409016, 7.696673) rotate(-30.000000) translate(-12.409016, -7.696673) "></path>
                    </g>
                </g>
            </g>
        </g>
    </g>
</svg>