<?xml version="1.0" encoding="UTF-8"?>
<svg width="24px" height="24px" viewBox="0 0 24 24" version="1.1" xmlns="http://www.w3.org/2000/svg" xmlns:xlink="http://www.w3.org/1999/xlink">
    <title>矩形</title>
    <g id="Page-1" stroke="none" stroke-width="1" fill="none" fill-rule="evenodd">
        <g id="0901映射管理" transform="translate(-18.000000, -116.000000)" fill="#AAB5CB" fill-rule="nonzero">
            <g id="分组-7" transform="translate(0.000000, 43.000000)">
                <g id="数据-" transform="translate(16.000000, 69.000000)">
                    <g id="编组-3" transform="translate(2.000000, 4.000000)">
                        <path d="M17.1019286,17.9514375 C17.6206339,17.9514375 18.0416518,18.3724554 18.0416518,18.8911607 C18.0416518,19.4098125 17.6206071,19.8308304 17.1019018,19.8308304 L6.89346429,19.8308304 C6.3748125,19.8308304 5.95379464,19.4098125 5.95379464,18.8911607 C5.95379464,18.3724554 6.3748125,17.9514375 6.89346429,17.9514375 L17.1019286,17.9514375 Z M22.0108125,0 C23.1084107,0 23.9954196,0.894508929 23.9878875,1.99213393 L23.9878875,1.99213393 L23.9878875,13.8394554 C23.9878875,14.9370268 23.1008304,15.8240357 22.0032857,15.8240357 L22.0032857,15.8240357 L1.98460714,15.8240357 C0.887008929,15.8240357 0,14.9370536 0,13.8394554 L0,13.8394554 L0,1.98460714 C0,0.887008929 0.887008929,0 1.98460714,0 L1.98460714,0 Z M18.8121778,5.79903811 C18.6741066,5.55989179 18.3683114,5.47795422 18.1291651,5.6160254 L18.1291651,5.6160254 L13.3656402,8.36583017 L12.2354442,6.40780126 C12.1031904,6.17873101 11.8154074,6.0922963 11.5788247,6.21058767 L11.5788247,6.21058767 L6.2763932,8.8618034 C6.10700119,8.94649941 6,9.11963097 6,9.30901699 L6,9.30901699 L6,9.5 C6,9.5472231 6.01065102,9.59383808 6.03116021,9.63637506 C6.10647808,9.7925876 6.29417056,9.85816568 6.45038309,9.78284782 L6.45038309,9.78284782 L11.5966148,7.3017883 L12.75,9.29903811 C12.8880712,9.53818442 13.1938664,9.620122 13.4330127,9.48205081 L13.4330127,9.48205081 L18.6291651,6.48205081 C18.8683114,6.34397962 18.950249,6.03818442 18.8121778,5.79903811 Z" id="形状结合"></path>
                    </g>
                </g>
            </g>
        </g>
    </g>
</svg>