<svg t="1635500438531" class="icon" viewBox="0 0 1024 1024" version="1.1" xmlns="http://www.w3.org/2000/svg" 
p-id="2401" width="200" height="200">
    <defs>
        <linearGradient x1="50%" y1="9.29515775%" x2="50%" y2="100%" id="linearGradient-1">
            <stop stop-color="#3BD6FF" offset="0%"></stop>
            <stop stop-color="#3575E6" offset="100%"></stop>
        </linearGradient>
    </defs>
<path d="M896 64H234.656C157.728 64 96 128.8 96 208c0 5.472 0.992 10.688 1.536 16H96v576c0 88.032 68.544 160 153.92 160H896V288H234.656C193.792 288 160 252.512 160 208s33.792-80 74.656-80H896V64zM464 352h176v172.192l-68.192-53.696a31.968 31.968 0 0 0-39.584 0L464 524.192V352z m-229.344 0H400v238.112a32 32 0 0 0 51.808 25.152L552 536.352l100.192 78.912A32 32 0 0 0 704 590.112V352h128v544H249.92c-49.312 0-89.92-42.656-89.92-96V329.024C181.536 343.392 207.04 352 234.656 352z m21.12-176H832v64H255.776z" 
p-id="2402" fill="url(#linearGradient-1)"
 fill-rule="nonzero">
 </path></svg>