<?xml version="1.0" encoding="UTF-8"?>
<svg width="24px" height="24px" viewBox="0 0 24 24" version="1.1" xmlns="http://www.w3.org/2000/svg" xmlns:xlink="http://www.w3.org/1999/xlink">
    <title>矩形</title>
    <defs>
        <linearGradient x1="50%" y1="9.29515775%" x2="50%" y2="100%" id="linearGradient-1">
            <stop stop-color="#3BD6FF" offset="0%"></stop>
            <stop stop-color="#3575E6" offset="100%"></stop>
        </linearGradient>
    </defs>
    <g id="Page-1" stroke="none" stroke-width="1" fill="none" fill-rule="evenodd">
        <g id="0901映射管理" transform="translate(-18.000000, -432.000000)" fill-rule="nonzero">
            <g id="分组-7" transform="translate(0.000000, 43.000000)">
                <g id="输出" transform="translate(16.000000, 389.000000)">
                    <g id="输出未选择" transform="translate(2.015783, 0.011837)">
                        <path d="M21.0387177,4.87299631 C21.0387177,4.62046858 20.8966708,4.41528977 20.675709,4.32059186 L11.3479655,0.106535142 C11.0323058,-0.0355117139 10.6692972,-0.0355117139 10.3378545,0.106535142 L0.99432799,4.32059186 C0.773366205,4.41528977 0.631319379,4.62046855 0.631319379,4.87299631 C0.631319379,5.12552407 0.773366234,5.33070286 0.99432799,5.42540073 L10.3378545,9.65524045 C10.6535142,9.79728731 11.0165228,9.79728731 11.3479655,9.65524045 L20.691492,5.42540073 C20.8966708,5.3464858 21.0387177,5.12552404 21.0387177,4.87299631 Z M14.7097411,17.1048089 C14.7097411,14.5795315 16.745746,12.5119605 19.2552405,12.5119605 C20.1548705,12.5119605 20.9755857,12.7802713 21.68582,13.2221948 L21.68582,7.46140566 C21.68582,7.2246609 21.5753391,7.00369912 21.3859433,6.89321824 C21.1965475,6.76695436 20.9598027,6.75117138 20.7704069,6.86165229 L12.2002466,11.2651048 C11.7583231,11.4860666 11.4742294,11.9595561 11.4742294,12.4961776 L11.4742294,23.3075216 C11.4742294,23.5442663 11.6004932,23.7652281 11.789889,23.891492 C11.9792848,24.0177559 12.2318126,24.0177559 12.4212084,23.891492 L17.0456227,21.1136868 C15.6567201,20.3403206 14.7097411,18.8409371 14.7097411,17.1048089 L14.7097411,17.1048089 Z M9.48557339,11.2651048 L0.91541309,6.86165229 C0.710234308,6.76695439 0.489272523,6.76695439 0.299876715,6.89321824 C0.110480908,7.01948212 0,7.24044388 0,7.46140566 L0,17.5467324 C0,18.0360049 0.252527734,18.4937115 0.647102353,18.7304562 L9.24882863,23.891492 C9.45400741,24.0177559 9.69075217,24.0019729 9.88014798,23.891492 C10.0695438,23.7652281 10.1958077,23.5442663 10.1958077,23.3075216 L10.1958077,12.4803946 C10.2115906,11.9595561 9.92749693,11.4860666 9.48557339,11.2651048 L9.48557339,11.2651048 Z M7.65474724,14.9425401 L2.5568434,12.2278668 L2.5568434,10.8705302 L7.65474724,13.5852035 L7.65474724,14.9425401 L7.65474724,14.9425401 Z" id="形状" fill="url(#linearGradient-1)"></path>
                        <path d="M22.8537608,16.8996301 C22.8379778,16.8838471 22.8064118,16.8680641 22.7906289,16.8522811 L20.6283601,14.6900123 C20.3284834,14.3901356 19.8234279,14.3901356 19.5077682,14.6900123 C19.2078915,14.989889 19.2078915,15.4949445 19.5077682,15.8106042 L20.3916153,16.6944513 L16.9351418,16.6944513 C16.4932183,16.6944513 16.1459926,17.0416769 16.1459926,17.4836005 C16.1459926,17.9255241 16.5090012,18.2727497 16.9351418,18.2727497 L20.3916153,18.2727497 L19.5235512,19.1408138 C19.2236745,19.4406905 19.2236745,19.945746 19.5235512,20.2614057 C19.8234279,20.5612824 20.3284834,20.5612824 20.644143,20.2614057 L22.8064118,18.0991369 C22.8221948,18.0833539 22.8537608,18.0675709 22.8695438,18.0517879 C22.9800247,17.941307 23.0431566,17.7992602 23.0747226,17.6572133 L23.0747226,17.6414303 C23.0905056,17.5940814 23.0905056,17.5309494 23.0905056,17.4836005 C23.0905056,17.2626387 23.0115906,17.0574599 22.8537608,16.8996301 L22.8537608,16.8996301 Z" id="路径" fill="#FFFFFF"></path>
                    </g>
                </g>
            </g>
        </g>
    </g>
</svg>