<?xml version="1.0" encoding="UTF-8"?>
<svg width="24px" height="24px" viewBox="0 0 24 24" version="1.1" xmlns="http://www.w3.org/2000/svg" xmlns:xlink="http://www.w3.org/1999/xlink">
    <title>矩形</title>
    <g id="Page-1" stroke="none" stroke-width="1" fill="none" fill-rule="evenodd">
        <g id="0901映射管理" transform="translate(-18.000000, -432.000000)" fill="#AAB5CB">
            <g id="分组-7" transform="translate(0.000000, 43.000000)">
                <g id="输出" transform="translate(16.000000, 389.000000)">
                    <g id="输出未选择" transform="translate(2.000000, 0.000000)">
                        <path d="M21.0545006,4.88483355 C21.0545006,4.63230582 20.9124538,4.427127 20.691492,4.3324291 L11.3637485,0.11837238 C11.0480888,-0.023674476 10.6850802,-0.023674476 10.3536375,0.11837238 L1.01011096,4.3324291 C0.789149179,4.427127 0.647102353,4.63230579 0.647102353,4.88483355 C0.647102353,5.13736131 0.789149208,5.34254009 1.01011096,5.43723797 L10.3536375,9.66707769 C10.6692972,9.80912455 11.0323058,9.80912455 11.3637485,9.66707769 L20.707275,5.43723797 C20.9124537,5.35832304 21.0545006,5.13736128 21.0545006,4.88483355 Z M14.725524,17.1166461 C14.725524,14.5913687 16.761529,12.5237978 19.2710234,12.5237978 C20.1706535,12.5237978 20.9913687,12.7921085 21.7016029,13.2340321 L21.7016029,7.4732429 C21.7016029,7.23649814 21.5911221,7.01553636 21.4017263,6.90505548 C21.2123305,6.7787916 20.9755857,6.76300862 20.7861899,6.87348953 L12.2160296,11.2769421 C11.7741061,11.4979038 11.4900123,11.9713934 11.4900123,12.5080148 L11.4900123,23.3193588 C11.4900123,23.5561036 11.6162762,23.7770654 11.805672,23.9033292 C11.9950678,24.0295931 12.2475955,24.0295931 12.4369914,23.9033292 L17.0614057,21.1255241 C15.6725031,20.3521578 14.725524,18.8527744 14.725524,17.1166461 L14.725524,17.1166461 Z M9.50135636,11.2769421 L0.931196064,6.87348953 C0.726017282,6.77879163 0.505055497,6.77879163 0.315659689,6.90505548 C0.126263882,7.03131936 0.0157829741,7.25228111 0.0157829741,7.4732429 L0.0157829741,17.5585697 C0.0157829741,18.0478422 0.268310708,18.5055487 0.662885327,18.7422935 L9.2646116,23.9033292 C9.46979038,24.0295931 9.70653514,24.0138101 9.89593095,23.9033292 C10.0853268,23.7770653 10.2115906,23.5561036 10.2115906,23.3193588 L10.2115906,12.4922318 C10.2273736,11.9713933 9.9432799,11.4979038 9.50135636,11.2769421 L9.50135636,11.2769421 Z M7.67053021,14.9543773 L2.57262638,12.2397041 L2.57262638,10.8823674 L7.67053021,13.5970407 L7.67053021,14.9543773 L7.67053021,14.9543773 Z" id="形状" fill-rule="nonzero"></path>
                        <path d="M22.8695438,16.9114673 C22.8537608,16.8956844 22.8221948,16.8799014 22.8064118,16.8641184 L20.644143,14.7018496 C20.3442663,14.4019729 19.8392109,14.4019729 19.5235512,14.7018496 C19.2236745,15.0017263 19.2236745,15.5067818 19.5235512,15.8224414 L20.4073983,16.7062885 L16.9509248,16.7062885 C16.5090012,16.7062885 16.1617756,17.0535142 16.1617756,17.4954377 C16.1617756,17.9373613 16.5247842,18.2845869 16.9509248,18.2845869 L20.4073983,18.2845869 L19.5393342,19.152651 C19.2394575,19.4525277 19.2394575,19.9575832 19.5393342,20.2732429 C19.8392109,20.5731196 20.3442663,20.5731196 20.659926,20.2732429 L22.8221948,18.1109741 C22.8379778,18.0951911 22.8695438,18.0794081 22.8853267,18.0636252 C22.9958076,17.9531443 23.0589396,17.8110974 23.0905056,17.6690506 L23.0905056,17.6532676 C23.1062885,17.6059186 23.1062885,17.5427867 23.1062885,17.4954377 C23.1062885,17.2744759 23.0273736,17.0692972 22.8695438,16.9114673 L22.8695438,16.9114673 Z" id="路径"></path>
                    </g>
                </g>
            </g>
        </g>
    </g>
</svg>