<?xml version="1.0" encoding="UTF-8"?>
<svg width="24px" height="24px" viewBox="0 0 24 24" version="1.1" xmlns="http://www.w3.org/2000/svg" xmlns:xlink="http://www.w3.org/1999/xlink">
    <title>矩形</title>
    <g id="Page-1" stroke="none" stroke-width="1" fill="none" fill-rule="evenodd">
        <g id="0901映射管理" transform="translate(-18.000000, -352.000000)">
            <g id="分组-7" transform="translate(0.000000, 43.000000)">
                <g id="数据-" transform="translate(16.000000, 69.000000)">
                    <g id="运行" transform="translate(0.000000, 240.000000)">
                        <g transform="translate(2.000000, 0.000000)" id="运行未选择">
                            <g transform="translate(0.000000, 2.000000)">
                                <path d="M22.0219267,-6.39488462e-14 L1.98560925,-6.39488462e-14 C0.887456816,-6.39488462e-14 0,0.887456816 0,1.98560925 L0,13.8464435 C0,14.9445959 0.887456816,15.8320259 1.98560925,15.8320259 L22.0143961,15.8320259 C23.1124949,15.8320259 24,14.9445691 24,13.8464435 L24,1.99313984 C24.0075359,0.894960604 23.1200791,-6.39488462e-14 22.0219267,-6.39488462e-14 Z M15.2679019,8.61177482 L9.82272526,11.7555668 C9.3562845,12.0263731 8.76975634,11.6878183 8.76975634,11.1464469 L8.76975634,4.85862173 C8.76975634,4.31706269 9.3562845,3.9786955 9.82272526,4.24944821 L15.2679019,7.3932938 C15.7342891,7.66404652 15.7342891,8.34096851 15.2679019,8.61177482 L15.2679019,8.61177482 Z M17.1105373,19.8408438 L6.89694508,19.8408438 C6.37803141,19.8408438 5.95680096,19.4196133 5.95680096,18.9006997 C5.95680096,18.3817324 6.37803141,17.9605019 6.89694508,17.9605019 L17.1105641,17.9605019 C17.6295313,17.9605019 18.0507618,18.3817324 18.0507618,18.9006997 C18.0507618,19.4196133 17.6295045,19.8408438 17.1105373,19.8408438 Z" fill="#AAB5CB" fill-rule="nonzero"></path>
                                <rect id="矩形" fill-opacity="0" fill="#D8D8D8" x="0" y="0" width="24" height="24"></rect>
                            </g>
                        </g>
                    </g>
                </g>
            </g>
        </g>
    </g>
</svg>