<?xml version="1.0" encoding="UTF-8"?>
<svg width="24px" height="24px" viewBox="0 0 24 24" version="1.1" xmlns="http://www.w3.org/2000/svg" xmlns:xlink="http://www.w3.org/1999/xlink">
    <title>矩形</title>
    <defs>
        <linearGradient x1="50%" y1="9.29515775%" x2="50%" y2="100%" id="linearGradient-1">
            <stop stop-color="#3BD6FF" offset="0%"></stop>
            <stop stop-color="#3575E6" offset="100%"></stop>
        </linearGradient>
    </defs>
    <g id="Page-1" stroke="none" stroke-width="1" fill="none" fill-rule="evenodd">
        <g id="0901映射管理" transform="translate(-18.000000, -352.000000)">
            <g id="分组-7" transform="translate(0.000000, 43.000000)">
                <g id="数据-" transform="translate(16.000000, 69.000000)">
                    <g id="运行" transform="translate(0.000000, 240.000000)">
                        <g transform="translate(2.000000, 0.000000)" id="运行选择">
                            <g transform="translate(0.000000, 2.000000)">
                                <g>
                                    <rect id="矩形" fill="#FFFFFF" x="6" y="3" width="12" height="10"></rect>
                                    <path d="M22.0108125,6.21724894e-14 L1.98460714,6.21724894e-14 C0.887008929,6.21724894e-14 -4.97379915e-14,0.887008929 -4.97379915e-14,1.98460714 L-4.97379915e-14,13.8394554 C-4.97379915e-14,14.9370536 0.887008929,15.8240357 1.98460714,15.8240357 L22.0032857,15.8240357 C23.1008304,15.8240357 23.9878875,14.9370268 23.9878875,13.8394554 L23.9878875,1.99213393 C23.9954196,0.894508929 23.1084107,6.21724894e-14 22.0108125,6.21724894e-14 Z M15.2601964,8.60742857 L9.81776786,11.7496339 C9.3515625,12.0203036 8.76533036,11.6819196 8.76533036,11.1408214 L8.76533036,4.85616964 C8.76533036,4.31488393 9.3515625,3.9766875 9.81776786,4.24730357 L15.2601964,7.3895625 C15.7263482,7.66017857 15.7263482,8.33675893 15.2601964,8.60742857 L15.2601964,8.60742857 Z M17.1019018,19.8308304 L6.89346429,19.8308304 C6.3748125,19.8308304 5.95379464,19.4098125 5.95379464,18.8911607 C5.95379464,18.3724554 6.3748125,17.9514375 6.89346429,17.9514375 L17.1019286,17.9514375 C17.6206339,17.9514375 18.0416518,18.3724554 18.0416518,18.8911607 C18.0416518,19.4098125 17.6206071,19.8308304 17.1019018,19.8308304 Z" id="运行未选择" fill="url(#linearGradient-1)" fill-rule="nonzero"></path>
                                </g>
                                <rect id="矩形" fill-opacity="0" fill="#D8D8D8" x="0" y="0" width="24" height="24"></rect>
                            </g>
                        </g>
                    </g>
                </g>
            </g>
        </g>
    </g>
</svg>