<?xml version="1.0" encoding="UTF-8"?>
<svg width="24px" height="24px" viewBox="0 0 24 24" version="1.1" xmlns="http://www.w3.org/2000/svg" xmlns:xlink="http://www.w3.org/1999/xlink">
    <title>矩形</title>
    <defs>
        <linearGradient x1="50%" y1="9.29515775%" x2="50%" y2="100%" id="linearGradient-1">
            <stop stop-color="#3BD6FF" offset="0%"></stop>
            <stop stop-color="#3575E6" offset="100%"></stop>
        </linearGradient>
    </defs>
    <g id="Page-1" stroke="none" stroke-width="1" fill="none" fill-rule="evenodd">
        <g id="0901映射管理" transform="translate(-18.000000, -512.000000)">
            <g id="分组-7" transform="translate(0.000000, 43.000000)">
                <g id="结果" transform="translate(16.000000, 469.000000)">
                    <g id="结果未选择" transform="translate(2.000000, 0.000000)">
                        <path d="M7.33183521,18.7325843 L6.07340824,18.7325843 C5.35730337,18.7325843 4.77602996,18.1722846 4.77602996,17.4861423 L4.77602996,11.0382022 C4.77602996,10.3490637 5.35730337,9.78876404 6.07340824,9.78876404 L7.33183521,9.78876404 C8.04794007,9.78876404 8.62921348,10.3490637 8.62921348,11.0382022 L8.62921348,17.4861423 C8.62621723,18.1752809 8.04494382,18.7325843 7.33183521,18.7325843 L7.33183521,18.7325843 Z M13.8157303,18.7325843 L12.5573034,18.7325843 C11.8411985,18.7325843 11.2599251,18.1722846 11.2599251,17.4861423 L11.2599251,3.09513109 C11.2599251,2.40599251 11.8411985,1.84569288 12.5573034,1.84569288 L13.8157303,1.84569288 C14.5318352,1.84569288 15.1131086,2.40599251 15.1131086,3.09513109 L15.1131086,17.4861423 C15.1071161,18.1752809 14.5318352,18.7325843 13.8157303,18.7325843 Z M20.4284644,18.7325843 L19.1700375,18.7325843 C18.4539326,18.7325843 17.8726592,18.1722846 17.8726592,17.4861423 L17.8726592,7.43071161 C17.8726592,6.74157303 18.4539326,6.18127341 19.1700375,6.18127341 L20.4284644,6.18127341 C21.1445693,6.18127341 21.7258427,6.74157303 21.7258427,7.43071161 L21.7258427,17.4861423 C21.7228464,18.1752809 21.1445693,18.7325843 20.4284644,18.7325843 Z M22.7026217,22.4808989 L1.32434457,22.4808989 C0.6082397,22.4808989 0.0269662921,21.9205993 0.0269662921,21.2314607 L0.0269662921,1.25543071 C0.0269662921,0.566292135 0.6082397,0.00898876404 1.32434457,0.00898876404 C2.04044944,0.00898876404 2.62172285,0.56928839 2.62172285,1.25543071 L2.62172285,19.9820225 L22.7026217,19.9820225 C23.4187266,19.9820225 24,20.5423221 24,21.2314607 C23.9940075,21.9205993 23.4157303,22.4808989 22.7026217,22.4808989 L22.7026217,22.4808989 Z" fill="url(#linearGradient-1)" fill-rule="nonzero"></path>
                        <rect id="矩形" fill-opacity="0" fill="#D8D8D8" x="0" y="0" width="24" height="24"></rect>
                    </g>
                </g>
            </g>
        </g>
    </g>
</svg>